<svg xmlns="http://www.w3.org/2000/svg" viewBox="0 0 1368.73 46.63"><g id="Layer_2" data-name="Layer 2"><g id="Layer_1-2" data-name="Layer 1"><path d="M591.17,13.29a2.14,2.14,0,1,1,2.14,2.13A2.13,2.13,0,0,1,591.17,13.29Z" style="fill:#d3b99d"/><path d="M560.19,25.81a2.13,2.13,0,0,1-4.26,0,2.13,2.13,0,0,1,4.26,0Z" style="fill:#d3b99d"/><path d="M811.89,25.81A2.14,2.14,0,1,1,814,27.94,2.12,2.12,0,0,1,811.89,25.81Z" style="fill:#d3b99d"/><path d="M687.57,27.34a16.37,16.37,0,0,1-1.42-6.73,18.18,18.18,0,0,1,2.7-9.46A19.31,19.31,0,0,1,695,5h0a25.84,25.84,0,0,1,7.78-3.25A40.37,40.37,0,0,1,712,.41a78.52,78.52,0,0,1,28.27,5.16c5.33,2,11.1,4.26,16.72,5.35s12-.34,16.21-4a11.6,11.6,0,0,1,3.5,6.19,2.12,2.12,0,0,1,2.12-1.93,2.14,2.14,0,1,1-2,2.89,11,11,0,0,1-2.09,7.28,61.05,61.05,0,0,0,16.25.55,11.2,11.2,0,0,1,0-6.94h-8.31a1.64,1.64,0,0,1,0-3.28h10.09l0,0A8.94,8.94,0,0,1,795,9.68,12.14,12.14,0,0,1,800,8.13a14.34,14.34,0,0,1,3.21.08,11.12,11.12,0,0,1,6.31,3.44h558.66v3.28H811.79a12.54,12.54,0,0,1,.06,9.14,13.38,13.38,0,0,1-7,7.09A27.39,27.39,0,0,1,800,32.79c-1,.21-1.89.34-2.81.46h0a47.47,47.47,0,0,1-25.63-4,.81.81,0,0,0,.13.15v0a8.92,8.92,0,0,1,1.57,7.67,3.13,3.13,0,0,1-1.05,1.79,25.81,25.81,0,0,1-4.19-.7,7.49,7.49,0,0,1-3.59-1.57,20.91,20.91,0,0,1-2.29,5.18,9.92,9.92,0,0,1-9.81,4.32,3.55,3.55,0,0,1-.5-2.24,7.92,7.92,0,0,0-.07-1.47v0a3.53,3.53,0,0,0-.17-.82,13.8,13.8,0,0,1-11.76,2.33A22.07,22.07,0,0,0,741.47,31a20.24,20.24,0,0,0-5.87-10.92,7.11,7.11,0,0,1-3.44,6.08,10.13,10.13,0,0,1-7,1.26,1.27,1.27,0,0,1-.52-.21c-.32-.26-.26-.76-.19-1.18a8.36,8.36,0,0,0-.88-5.2,7.83,7.83,0,0,1-1.89,3.25,4.59,4.59,0,0,1-3.46,1.39.89.89,0,0,1-.61-.19,1.32,1.32,0,0,1-.38-.76A11.8,11.8,0,0,0,711,16.88a11.49,11.49,0,0,0-9.71-.07.49.49,0,0,1,.19.05h0a9.26,9.26,0,0,1,7.88,7.75,9.59,9.59,0,0,1-5.93,9.46,12.12,12.12,0,0,1-11.83-1.49A13.48,13.48,0,0,1,687.57,27.34Z" style="fill:#d3b99d"/><path d="M816.21,25.81a1.65,1.65,0,0,1,1.64-1.64h550.37v3.28H817.85A1.65,1.65,0,0,1,816.21,25.81Z" style="fill:#d3b99d"/><path d="M554.23,27.45H.5V24.17H554.23a1.64,1.64,0,0,1,0,3.28Z" style="fill:#d3b99d"/><path d="M560.53,14.93H.5V11.65H562.75A11.16,11.16,0,0,1,569,8.21a14.55,14.55,0,0,1,3.23-.08,12.1,12.1,0,0,1,5.08,1.55,9,9,0,0,1,2.24,1.93l0,0h9.86a1.64,1.64,0,0,1,0,3.28h-8.1a11.12,11.12,0,0,1,0,6.94,61.17,61.17,0,0,0,16.26-.55,11.1,11.1,0,0,1-2.1-7.51,11.35,11.35,0,0,1,3.61-6.92c4.15,3.69,10.57,5.1,16.21,4s11.36-3.38,16.71-5.35A78.48,78.48,0,0,1,660.35.41a40,40,0,0,1,9.1,1.35A25.85,25.85,0,0,1,677.25,5a19.17,19.17,0,0,1,6.21,6.14,18.17,18.17,0,0,1,2.69,9.46,16.68,16.68,0,0,1-1.41,6.73,13.77,13.77,0,0,1-4,5.24,12.16,12.16,0,0,1-11.85,1.49,9.6,9.6,0,0,1-5.91-9.46,9.27,9.27,0,0,1,7.89-7.75h0a.33.33,0,0,1,.16-.05,11.42,11.42,0,0,0-9.68.07,11.81,11.81,0,0,0-6.19,7.67,1.45,1.45,0,0,1-.38.76,1,1,0,0,1-.63.19,4.56,4.56,0,0,1-3.44-1.39,7.71,7.71,0,0,1-1.88-3.25,8.23,8.23,0,0,0-.89,5.2c.07.42.13.92-.18,1.18a1.46,1.46,0,0,1-.55.21,10.14,10.14,0,0,1-7-1.26,7.1,7.1,0,0,1-3.41-6.08A20.06,20.06,0,0,0,630.84,31a22.15,22.15,0,0,0,1.68,12.86,13.77,13.77,0,0,1-11.74-2.33,5.81,5.81,0,0,0-.19.86,11.44,11.44,0,0,0,0,1.45,3.63,3.63,0,0,1-.53,2.24,9.94,9.94,0,0,1-9.81-4.32,20.85,20.85,0,0,1-2.27-5.18,7.54,7.54,0,0,1-3.58,1.57,26.17,26.17,0,0,1-4.22.7,3.3,3.3,0,0,1-1-1.79,8.74,8.74,0,0,1,1.62-7.69v0c0-.06.06-.06.1-.12a47.62,47.62,0,0,1-25.62,4,25.43,25.43,0,0,1-2.84-.46,26.72,26.72,0,0,1-4.92-1.63,13.4,13.4,0,0,1-7-7.09A12.29,12.29,0,0,1,560.53,14.93Z" style="fill:#d3b99d"/><path d="M1368.33,11.65v3.28H782.59a1.64,1.64,0,0,1,0-3.28Z" style="fill:none;stroke:#5b320e;stroke-miterlimit:10;stroke-width:0.7977289976313283px"/><path d="M780.91,13.29a2.13,2.13,0,0,1-2.13,2.13,2.17,2.17,0,0,1-2-1.38,2.56,2.56,0,0,1-.13-.75.75.75,0,0,1,0-.21,2.14,2.14,0,0,1,4.26.21Z" style="fill:none;stroke:#5b320e;stroke-miterlimit:10;stroke-width:0.7977289976313283px"/><path d="M817.85,24.17h550.48v3.28H817.85a1.64,1.64,0,1,1,0-3.28Z" style="fill:none;stroke:#5b320e;stroke-miterlimit:10;stroke-width:0.7977289976313283px"/><path d="M816.16,25.81A2.14,2.14,0,1,1,814,23.68,2.13,2.13,0,0,1,816.16,25.81Z" style="fill:none;stroke:#5b320e;stroke-miterlimit:10;stroke-width:0.7977289976313283px"/><path d="M591.1,13.29a1.62,1.62,0,0,1-1.61,1.64H.4V11.65H589.49A1.62,1.62,0,0,1,591.1,13.29Z" style="fill:none;stroke:#5b320e;stroke-miterlimit:10;stroke-width:0.7977289976313283px"/><path d="M595.44,13.29a2.14,2.14,0,1,1-2.13-2.13A2.12,2.12,0,0,1,595.44,13.29Z" style="fill:none;stroke:#5b320e;stroke-miterlimit:10;stroke-width:0.7977289976313283px"/><path d="M555.85,25.81a1.62,1.62,0,0,1-1.62,1.64H.4V24.17H554.23A1.62,1.62,0,0,1,555.85,25.81Z" style="fill:none;stroke:#5b320e;stroke-miterlimit:10;stroke-width:0.7977289976313283px"/><path d="M560.19,25.81a2.13,2.13,0,0,1-4.26,0,2.13,2.13,0,0,1,4.26,0Z" style="fill:none;stroke:#5b320e;stroke-miterlimit:10;stroke-width:0.7977289976313283px"/><path d="M686.15,20.6a16.33,16.33,0,0,1-1.42,6.73,13.54,13.54,0,0,1-4,5.26,12.22,12.22,0,0,1-11.84,1.49c-3.8-1.65-6.34-5.59-5.92-9.46a9.27,9.27,0,0,1,7.89-7.76h0a.58.58,0,0,1,.18,0,11.44,11.44,0,0,0-9.69.06,11.86,11.86,0,0,0-6.2,7.66,1.3,1.3,0,0,1-.37.77,1,1,0,0,1-.62.19,4.61,4.61,0,0,1-3.44-1.38,7.93,7.93,0,0,1-1.9-3.27,8.19,8.19,0,0,0-.87,5.22c.05.41.12.91-.2,1.17a1.11,1.11,0,0,1-.53.2,10.05,10.05,0,0,1-7.05-1.24,7.16,7.16,0,0,1-3.42-6.11A20.12,20.12,0,0,0,630.84,31a22.08,22.08,0,0,0,1.69,12.87,13.75,13.75,0,0,1-11.75-2.32,4.3,4.3,0,0,0-.18.85,9.68,9.68,0,0,0-.06,1.44,3.65,3.65,0,0,1-.51,2.25,10,10,0,0,1-9.82-4.33,20.72,20.72,0,0,1-2.27-5.16,7.67,7.67,0,0,1-3.58,1.56,26.21,26.21,0,0,1-4.21.69,3.1,3.1,0,0,1-1-1.77,8.85,8.85,0,0,1,1.6-7.71v0c0-.05.07-.07.1-.12a47.79,47.79,0,0,1-25.61,4c-.94-.11-1.88-.27-2.84-.46a26.42,26.42,0,0,1-4.92-1.65,13.32,13.32,0,0,1-7-7.08,12.42,12.42,0,0,1,.07-9.15c.12-.28.26-.56.41-.85a10.42,10.42,0,0,1,1.81-2.41,11,11,0,0,1,6.3-3.45,15,15,0,0,1,3.21-.09,12,12,0,0,1,5.08,1.57,8.66,8.66,0,0,1,2.25,1.93l0,0a9.35,9.35,0,0,1,1.77,3.26,11.13,11.13,0,0,1,0,6.94,60.81,60.81,0,0,0,16.27-.55,11.12,11.12,0,0,1-2.1-7.49,11.28,11.28,0,0,1,3.6-6.92c4.16,3.67,10.58,5.09,16.21,4s11.38-3.37,16.72-5.34A78.65,78.65,0,0,1,660.34.4a41.77,41.77,0,0,1,9.11,1.35A25.9,25.9,0,0,1,677.26,5a19.5,19.5,0,0,1,6.2,6.16A18.2,18.2,0,0,1,686.15,20.6Z" style="fill:none;stroke:#5b320e;stroke-linecap:round;stroke-linejoin:round;stroke-width:0.7977289976313283px"/><path d="M632,43.45c-7.89-5-7.27-14.07-4.59-20.13s8.82-10.65,15.14-13.66a36.91,36.91,0,0,1,17.07-3.8A38.78,38.78,0,0,1,670.7,7.72c6.38,2.32,12.24,7.63,12,14.42a11.86,11.86,0,0,1-2.56,7.28c-1.68,2-5.13,4-10.44,3.17" style="fill:none;stroke:#5b320e;stroke-linecap:round;stroke-linejoin:round;stroke-width:0.7977289976313283px"/><path d="M575.41,11.54a7.67,7.67,0,0,0-10.79,2,9.13,9.13,0,0,0-1.3,3.18c-.89,4.35,1.95,8.62,5.84,10.75a16.39,16.39,0,0,0,6.26,1.77c13.88,1.33,25.07-2.48,37.12-8.35" style="fill:none;stroke:#5b320e;stroke-linecap:round;stroke-linejoin:round;stroke-width:0.7977289976313283px"/><path d="M599.62,11.61c2.65,3.32,7.11,4.68,11.36,4.86,7.27.32,14.35-2.24,21-5.19s13.18-6.39,20.28-8a42.32,42.32,0,0,1,25,1.71" style="fill:none;stroke:#5b320e;stroke-linecap:round;stroke-linejoin:round;stroke-width:0.7977289976313283px"/><path d="M635.53,9.66a69.11,69.11,0,0,0-10.59,7.17,46.32,46.32,0,0,0-6.5,6.85,17.46,17.46,0,0,0-3.87,8.23c-.68,4.56-.11,9.89,5.32,13.83" style="fill:none;stroke:#5b320e;stroke-linecap:round;stroke-linejoin:round;stroke-width:0.7977289976313283px"/><path d="M613.2,24.31a43.24,43.24,0,0,0-12.81,14" style="fill:none;stroke:#5b320e;stroke-linecap:round;stroke-linejoin:round;stroke-width:0.7977289976313283px"/><path d="M636.71,20.1c.47-3.45,2.33-5.41,4.8-7.2a24.64,24.64,0,0,1,8.37-3.63,34.57,34.57,0,0,1,12.69-.9,23.15,23.15,0,0,1,12.07,5.09" style="fill:none;stroke:#5b320e;stroke-linecap:round;stroke-linejoin:round;stroke-width:0.7977289976313283px"/><path d="M577.54,15.35a3.89,3.89,0,0,1-1.72,4.14,4.3,4.3,0,0,1-4.54-.1c-.52-.34-1.12-.82-1.69-.56a1.24,1.24,0,0,0-.56.67,3.51,3.51,0,0,0,1,3.74,7.7,7.7,0,0,0,3.69,2,8.79,8.79,0,0,0,4.12-.18,5.5,5.5,0,0,0,3.57-3.22" style="fill:none;stroke:#5b320e;stroke-linecap:round;stroke-linejoin:round;stroke-width:0.5318193317542196px"/><path d="M672.77,25.63a6.48,6.48,0,0,1-3.16-.89,3.81,3.81,0,0,0-3.2-.25,2.5,2.5,0,0,0-1.2,1.88,3.79,3.79,0,0,0,1.61,3.38,6.72,6.72,0,0,0,3.71,1.1,7.46,7.46,0,0,0,4.24-1,6.59,6.59,0,0,0,2.42-7.5.88.88,0,0,1-.05-.15,8.88,8.88,0,0,0-6.31-5.32h0l0,0" style="fill:none;stroke:#5b320e;stroke-linecap:round;stroke-linejoin:round;stroke-width:0.5318193317542196px"/><path d="M600.7,20.21c7.45.67,18.94-1.3,30.5-8.21" style="fill:none;stroke:#5b320e;stroke-linecap:round;stroke-linejoin:round;stroke-width:0.5318193317542196px"/><path d="M600.38,29.55l.32-.16v0a55.89,55.89,0,0,0,12.16-8.23" style="fill:none;stroke:#5b320e;stroke-linecap:round;stroke-linejoin:round;stroke-width:0.5318193317542196px"/><path d="M646.87,26.68a5,5,0,0,1-2.25-3.6,7.94,7.94,0,0,1,.74-4.28c1.93-4.29,6.5-7,11.16-7.59s9.4.69,13.67,2.65a19.6,19.6,0,0,0-13.54-1.35c-3.95,1.2-7.64,4.32-7.86,8.34" style="fill:none;stroke:#5b320e;stroke-linecap:round;stroke-linejoin:round;stroke-width:0.5318193317542196px"/><path d="M669.06,13.44a15.14,15.14,0,0,0-9.91,1,10.76,10.76,0,0,0-5.92,7.79" style="fill:none;stroke:#5b320e;stroke-linecap:round;stroke-linejoin:round;stroke-width:0.5318193317542196px"/><path d="M608.13,36.67a14.62,14.62,0,0,1,4.92-11.33" style="fill:none;stroke:#5b320e;stroke-linecap:round;stroke-linejoin:round;stroke-width:0.5318193317542196px"/><path d="M619.21,32.13a9.64,9.64,0,0,0,1.59,9.38" style="fill:none;stroke:#5b320e;stroke-linecap:round;stroke-linejoin:round;stroke-width:0.5318193317542196px"/><path d="M667.88,24.44A15.43,15.43,0,0,0,665.22,27" style="fill:none;stroke:#5b320e;stroke-linecap:round;stroke-linejoin:round;stroke-width:0.26590966587710874px"/><path d="M669.53,25,666,28.37" style="fill:none;stroke:#5b320e;stroke-linecap:round;stroke-linejoin:round;stroke-width:0.26590966587710874px"/><path d="M671.2,25.46,667.69,29" style="fill:none;stroke:#5b320e;stroke-linecap:round;stroke-linejoin:round;stroke-width:0.26590966587710874px"/><path d="M672.5,25.72a43,43,0,0,1-3.32,3.7" style="fill:none;stroke:#5b320e;stroke-linecap:round;stroke-linejoin:round;stroke-width:0.26590966587710874px"/><path d="M670,17.29l-1.15,1" style="fill:none;stroke:#5b320e;stroke-linecap:round;stroke-linejoin:round;stroke-width:0.26590966587710874px"/><path d="M671.86,17.55l-1.17,1.07" style="fill:none;stroke:#5b320e;stroke-linecap:round;stroke-linejoin:round;stroke-width:0.26590966587710874px"/><path d="M673.13,18.2a8.79,8.79,0,0,0-1.36,1.5" style="fill:none;stroke:#5b320e;stroke-linecap:round;stroke-linejoin:round;stroke-width:0.26590966587710874px"/><path d="M674.19,18.88,673,20.12" style="fill:none;stroke:#5b320e;stroke-linecap:round;stroke-linejoin:round;stroke-width:0.26590966587710874px"/><path d="M675.33,19.76l-1.68,2" style="fill:none;stroke:#5b320e;stroke-linecap:round;stroke-linejoin:round;stroke-width:0.26590966587710874px"/><path d="M676.31,21a16.93,16.93,0,0,1-2.23,2.25" style="fill:none;stroke:#5b320e;stroke-linecap:round;stroke-linejoin:round;stroke-width:0.26590966587710874px"/><path d="M677.2,22.32a92.13,92.13,0,0,1-6.77,7.74" style="fill:none;stroke:#5b320e;stroke-linecap:round;stroke-linejoin:round;stroke-width:0.26590966587710874px"/><path d="M677.22,24.65c-1.59,2.07-3.28,4.07-5.05,6" style="fill:none;stroke:#5b320e;stroke-linecap:round;stroke-linejoin:round;stroke-width:0.26590966587710874px"/><path d="M610.85,27.73a51.29,51.29,0,0,0-8,9.89" style="fill:none;stroke:#5b320e;stroke-linecap:round;stroke-linejoin:round;stroke-width:0.26590966587710874px"/><path d="M608.18,32.53a23.18,23.18,0,0,0-3.3,4.52" style="fill:none;stroke:#5b320e;stroke-linecap:round;stroke-linejoin:round;stroke-width:0.26590966587710874px"/><path d="M607.78,34.76l-1.48,2" style="fill:none;stroke:#5b320e;stroke-linecap:round;stroke-linejoin:round;stroke-width:0.26590966587710874px"/><path d="M652.81,12.33a21.93,21.93,0,0,0-7.95,8.57" style="fill:none;stroke:#5b320e;stroke-linecap:round;stroke-linejoin:round;stroke-width:0.26590966587710874px"/><path d="M655.37,11.47a32.11,32.11,0,0,1-2.75,2.32,31.15,31.15,0,0,0-7.69,9.29" style="fill:none;stroke:#5b320e;stroke-linecap:round;stroke-linejoin:round;stroke-width:0.26590966587710874px"/><path d="M657.38,11.46a11.13,11.13,0,0,0-1.45,1.2" style="fill:none;stroke:#5b320e;stroke-linecap:round;stroke-linejoin:round;stroke-width:0.26590966587710874px"/><path d="M649,19.7a15.83,15.83,0,0,0-3.63,5.68" style="fill:none;stroke:#5b320e;stroke-linecap:round;stroke-linejoin:round;stroke-width:0.26590966587710874px"/><path d="M647.73,23.86a4.26,4.26,0,0,0-1.21,1.78" style="fill:none;stroke:#5b320e;stroke-linecap:round;stroke-linejoin:round;stroke-width:0.26590966587710874px"/><path d="M578.58,12.07a2,2,0,0,0-1,.79" style="fill:none;stroke:#5b320e;stroke-linecap:round;stroke-linejoin:round;stroke-width:0.26590966587710874px"/><path d="M579.67,12.86a9.49,9.49,0,0,0-1.92,1.77" style="fill:none;stroke:#5b320e;stroke-linecap:round;stroke-linejoin:round;stroke-width:0.26590966587710874px"/><path d="M580.58,14.3,577.77,17" style="fill:none;stroke:#5b320e;stroke-linecap:round;stroke-linejoin:round;stroke-width:0.26590966587710874px"/><path d="M581.09,15.65c-2,2.22-7.34,6.28-9.78,8" style="fill:none;stroke:#5b320e;stroke-linecap:round;stroke-linejoin:round;stroke-width:0.26590966587710874px"/><path d="M581.27,17.44a64,64,0,0,1-8.3,7.3" style="fill:none;stroke:#5b320e;stroke-linecap:round;stroke-linejoin:round;stroke-width:0.26590966587710874px"/><path d="M581.31,19.71c-2,1.87-4,3.65-6.15,5.32" style="fill:none;stroke:#5b320e;stroke-linecap:round;stroke-linejoin:round;stroke-width:0.26590966587710874px"/><path d="M581.15,21.66l-3.39,2.82" style="fill:none;stroke:#5b320e;stroke-linecap:round;stroke-linejoin:round;stroke-width:0.26590966587710874px"/><path d="M573.53,20.48a35.92,35.92,0,0,0-3.16,2.35" style="fill:none;stroke:#5b320e;stroke-linecap:round;stroke-linejoin:round;stroke-width:0.26590966587710874px"/><path d="M572.13,19.54a10,10,0,0,0-2.34,2" style="fill:none;stroke:#5b320e;stroke-linecap:round;stroke-linejoin:round;stroke-width:0.26590966587710874px"/><path d="M577.62,10.86l-.58.35" style="fill:none;stroke:#5b320e;stroke-linecap:round;stroke-linejoin:round;stroke-width:0.26590966587710874px"/><path d="M575.89,9.84l-1.16.95" style="fill:none;stroke:#5b320e;stroke-linecap:round;stroke-linejoin:round;stroke-width:0.26590966587710874px"/><path d="M574.58,9.24l-1.64.93" style="fill:none;stroke:#5b320e;stroke-linecap:round;stroke-linejoin:round;stroke-width:0.26590966587710874px"/><path d="M572.83,8.77a17.64,17.64,0,0,0-2.22,1.3" style="fill:none;stroke:#5b320e;stroke-linecap:round;stroke-linejoin:round;stroke-width:0.26590966587710874px"/><path d="M570.38,8.54,568.5,10" style="fill:none;stroke:#5b320e;stroke-linecap:round;stroke-linejoin:round;stroke-width:0.26590966587710874px"/><path d="M567.07,9.22a42.81,42.81,0,0,0-6.46,7.25" style="fill:none;stroke:#5b320e;stroke-linecap:round;stroke-linejoin:round;stroke-width:0.26590966587710874px"/><path d="M563.69,15.32A20.28,20.28,0,0,0,559.75,20" style="fill:none;stroke:#5b320e;stroke-linecap:round;stroke-linejoin:round;stroke-width:0.26590966587710874px"/><path d="M563,18a11.62,11.62,0,0,0-2.8,3.89" style="fill:none;stroke:#5b320e;stroke-linecap:round;stroke-linejoin:round;stroke-width:0.26590966587710874px"/><path d="M563.47,20a12.51,12.51,0,0,0-2.74,3.6" style="fill:none;stroke:#5b320e;stroke-linecap:round;stroke-linejoin:round;stroke-width:0.26590966587710874px"/><path d="M563.92,22a21,21,0,0,0-2.31,2.83" style="fill:none;stroke:#5b320e;stroke-linecap:round;stroke-linejoin:round;stroke-width:0.26590966587710874px"/><path d="M564.85,23.5a8.89,8.89,0,0,0-2.23,2.83" style="fill:none;stroke:#5b320e;stroke-linecap:round;stroke-linejoin:round;stroke-width:0.26590966587710874px"/><path d="M565.69,25.17c-.7.75-1.36,1.53-2,2.34" style="fill:none;stroke:#5b320e;stroke-linecap:round;stroke-linejoin:round;stroke-width:0.26590966587710874px"/><path d="M567.32,26a15.64,15.64,0,0,0-2.57,2.82" style="fill:none;stroke:#5b320e;stroke-linecap:round;stroke-linejoin:round;stroke-width:0.26590966587710874px"/><path d="M568.63,27.05l-2.26,2.55" style="fill:none;stroke:#5b320e;stroke-linecap:round;stroke-linejoin:round;stroke-width:0.26590966587710874px"/><path d="M570,27.76l-2.13,2.44" style="fill:none;stroke:#5b320e;stroke-linecap:round;stroke-linejoin:round;stroke-width:0.26590966587710874px"/><path d="M571.4,28.42a24,24,0,0,0-2.67,3.19" style="fill:none;stroke:#5b320e;stroke-linecap:round;stroke-linejoin:round;stroke-width:0.26590966587710874px"/><path d="M572.94,28.67a13.66,13.66,0,0,0-2.79,3.18" style="fill:none;stroke:#5b320e;stroke-linecap:round;stroke-linejoin:round;stroke-width:0.26590966587710874px"/><path d="M574.82,29.26a8.16,8.16,0,0,0-2.69,2.82" style="fill:none;stroke:#5b320e;stroke-linecap:round;stroke-linejoin:round;stroke-width:0.26590966587710874px"/><path d="M576.45,29.6a11.2,11.2,0,0,0-2.8,3.06" style="fill:none;stroke:#5b320e;stroke-linecap:round;stroke-linejoin:round;stroke-width:0.26590966587710874px"/><path d="M578.46,29.86a14.87,14.87,0,0,0-3.33,3.48" style="fill:none;stroke:#5b320e;stroke-linecap:round;stroke-linejoin:round;stroke-width:0.26590966587710874px"/><path d="M580.8,30a13.91,13.91,0,0,0-3.08,2.9" style="fill:none;stroke:#5b320e;stroke-linecap:round;stroke-linejoin:round;stroke-width:0.26590966587710874px"/><path d="M583.26,29.74a10.14,10.14,0,0,0-3.19,3" style="fill:none;stroke:#5b320e;stroke-linecap:round;stroke-linejoin:round;stroke-width:0.26590966587710874px"/><path d="M585.49,29.64a12.42,12.42,0,0,0-3.8,3.7" style="fill:none;stroke:#5b320e;stroke-linecap:round;stroke-linejoin:round;stroke-width:0.26590966587710874px"/><path d="M587.94,30l.16-.21a14.53,14.53,0,0,0-3.69,3.39" style="fill:none;stroke:#5b320e;stroke-linecap:round;stroke-linejoin:round;stroke-width:0.26590966587710874px"/><path d="M590,29.36l-3.29,3.27" style="fill:none;stroke:#5b320e;stroke-linecap:round;stroke-linejoin:round;stroke-width:0.26590966587710874px"/><path d="M592.37,29l-3.52,3.51" style="fill:none;stroke:#5b320e;stroke-linecap:round;stroke-linejoin:round;stroke-width:0.26590966587710874px"/><path d="M595.09,28.1a47.77,47.77,0,0,0-3.54,3.72" style="fill:none;stroke:#5b320e;stroke-linecap:round;stroke-linejoin:round;stroke-width:0.26590966587710874px"/><path d="M598.35,27.26A20.52,20.52,0,0,0,594.49,31" style="fill:none;stroke:#5b320e;stroke-linecap:round;stroke-linejoin:round;stroke-width:0.26590966587710874px"/><path d="M601.41,26.12a26.89,26.89,0,0,0-4.47,4.19" style="fill:none;stroke:#5b320e;stroke-linecap:round;stroke-linejoin:round;stroke-width:0.26590966587710874px"/><path d="M605.38,24.81q-2.64,2-5.18,4.19" style="fill:none;stroke:#5b320e;stroke-linecap:round;stroke-linejoin:round;stroke-width:0.26590966587710874px"/><path d="M609.41,22.75a40.13,40.13,0,0,1-4.48,4.07" style="fill:none;stroke:#5b320e;stroke-linecap:round;stroke-linejoin:round;stroke-width:0.26590966587710874px"/><path d="M630.41,14.12c-7.3,6-11.71,10.7-15.2,16.07" style="fill:none;stroke:#5b320e;stroke-linecap:round;stroke-linejoin:round;stroke-width:0.26590966587710874px"/><path d="M624.46,20.72A81.65,81.65,0,0,0,615,32.13" style="fill:none;stroke:#5b320e;stroke-linecap:round;stroke-linejoin:round;stroke-width:0.26590966587710874px"/><path d="M620.52,27.07c-2.09,2.23-4.44,4.8-5.62,7.63" style="fill:none;stroke:#5b320e;stroke-linecap:round;stroke-linejoin:round;stroke-width:0.26590966587710874px"/><path d="M619.22,30.45a21.69,21.69,0,0,0-4.32,6.3" style="fill:none;stroke:#5b320e;stroke-linecap:round;stroke-linejoin:round;stroke-width:0.26590966587710874px"/><path d="M618.76,33.15a19.1,19.1,0,0,0-3.41,5.74" style="fill:none;stroke:#5b320e;stroke-linecap:round;stroke-linejoin:round;stroke-width:0.26590966587710874px"/><path d="M618.39,35.94A15.38,15.38,0,0,0,616,40.26" style="fill:none;stroke:#5b320e;stroke-linecap:round;stroke-linejoin:round;stroke-width:0.26590966587710874px"/><path d="M619.09,37.94a12.55,12.55,0,0,0-2.35,3.82" style="fill:none;stroke:#5b320e;stroke-linecap:round;stroke-linejoin:round;stroke-width:0.26590966587710874px"/><path d="M619.67,39.22a8.66,8.66,0,0,0-2.29,3.86" style="fill:none;stroke:#5b320e;stroke-linecap:round;stroke-linejoin:round;stroke-width:0.26590966587710874px"/><path d="M620.37,40.5a12.45,12.45,0,0,0-2.1,3.4" style="fill:none;stroke:#5b320e;stroke-linecap:round;stroke-linejoin:round;stroke-width:0.26590966587710874px"/><path d="M620.73,42.27A13.33,13.33,0,0,0,619,44.43" style="fill:none;stroke:#5b320e;stroke-linecap:round;stroke-linejoin:round;stroke-width:0.26590966587710874px"/><path d="M632.8,12.08a46.43,46.43,0,0,0-13.4,17.29" style="fill:none;stroke:#5b320e;stroke-linecap:round;stroke-linejoin:round;stroke-width:0.26590966587710874px"/><path d="M615.71,13.38c10-1.09,18.92-6.8,28.57-9.79C651,1.5,660.34.4,667.78,2.17" style="fill:none;stroke:#5b320e;stroke-linecap:round;stroke-linejoin:round;stroke-width:0.26590966587710874px"/><path d="M639.82,18a.8.8,0,0,0-.48.35,3.62,3.62,0,0,0,1.54,5.5" style="fill:none;stroke:#5b320e;stroke-linecap:round;stroke-linejoin:round;stroke-width:0.26590966587710874px"/><path d="M624.13,35.36A6.65,6.65,0,0,0,626.81,41" style="fill:none;stroke:#5b320e;stroke-linecap:round;stroke-linejoin:round;stroke-width:0.26590966587710874px"/><path d="M611,39.92a7.41,7.41,0,0,0,2.68,3.28" style="fill:none;stroke:#5b320e;stroke-linecap:round;stroke-linejoin:round;stroke-width:0.26590966587710874px"/><path d="M570.27,12.46a3.79,3.79,0,0,1,4.37,2.74" style="fill:none;stroke:#5b320e;stroke-linecap:round;stroke-linejoin:round;stroke-width:0.26590966587710874px"/><path d="M669.06,4.71a22,22,0,0,1,11.09,5.41c3.3,2.93,7.07,10.88,2.77,19.69" style="fill:none;stroke:#5b320e;stroke-linecap:round;stroke-linejoin:round;stroke-width:0.26590966587710874px"/><path d="M811.85,24.07a13.3,13.3,0,0,1-7,7.08A26.81,26.81,0,0,1,800,32.8c-.94.19-1.88.34-2.81.46a47.73,47.73,0,0,1-25.65-4,.83.83,0,0,0,.13.14v0a8.94,8.94,0,0,1,1.58,7.69,3.1,3.1,0,0,1-1.05,1.77,26,26,0,0,1-4.21-.69,7.63,7.63,0,0,1-3.58-1.56,20.75,20.75,0,0,1-2.28,5.16,9.94,9.94,0,0,1-9.81,4.33,3.65,3.65,0,0,1-.52-2.25,10.08,10.08,0,0,0,0-1.46h0a4.62,4.62,0,0,0-.18-.82,13.75,13.75,0,0,1-11.75,2.32A22.16,22.16,0,0,0,741.47,31a20.32,20.32,0,0,0-5.88-10.93,7.17,7.17,0,0,1-3.43,6.11,10,10,0,0,1-7,1.24,1.1,1.1,0,0,1-.54-.2c-.31-.26-.24-.76-.19-1.17a8.4,8.4,0,0,0-.87-5.22,7.93,7.93,0,0,1-1.9,3.27,4.61,4.61,0,0,1-3.44,1.38,1,1,0,0,1-.62-.19,1.26,1.26,0,0,1-.38-.77A11.81,11.81,0,0,0,711,16.88a11.44,11.44,0,0,0-9.69-.06.53.53,0,0,1,.17,0h0a9.25,9.25,0,0,1,7.88,7.76c.43,3.87-2.11,7.81-5.93,9.46a12.18,12.18,0,0,1-11.82-1.49,13.47,13.47,0,0,1-4-5.26,16.33,16.33,0,0,1-1.42-6.73,18.12,18.12,0,0,1,2.7-9.44A19.3,19.3,0,0,1,695.05,5a25.79,25.79,0,0,1,7.79-3.25A42.13,42.13,0,0,1,712,.4a78.69,78.69,0,0,1,28.26,5.17c5.35,2,11.1,4.26,16.73,5.34s12-.34,16.2-4a11.47,11.47,0,0,1,3.5,6.18,6.29,6.29,0,0,1,.11.74,1.62,1.62,0,0,1,0,.22,11,11,0,0,1-2.1,7.27,60.73,60.73,0,0,0,16.26.55,11.2,11.2,0,0,1,0-6.94,9.37,9.37,0,0,1,1.78-3.26l0,0A8.79,8.79,0,0,1,795,9.69a12.13,12.13,0,0,1,5.1-1.57,15,15,0,0,1,3.21.09,11,11,0,0,1,6.3,3.45,10.72,10.72,0,0,1,1.81,2.41c.14.29.29.57.41.85A12.42,12.42,0,0,1,811.85,24.07Z" style="fill:none;stroke:#5b320e;stroke-linecap:round;stroke-linejoin:round;stroke-width:0.7977289976313283px"/><path d="M740.29,43.45c7.89-5,7.28-14.07,4.59-20.13s-8.82-10.65-15.13-13.66a37,37,0,0,0-17.08-3.8,38.77,38.77,0,0,0-11.06,1.86c-6.38,2.32-12.24,7.63-12,14.42a11.91,11.91,0,0,0,2.55,7.28c1.68,2,5.13,4,10.44,3.17" style="fill:none;stroke:#5b320e;stroke-linecap:round;stroke-linejoin:round;stroke-width:0.7977289976313283px"/><path d="M796.9,11.54a7.66,7.66,0,0,1,10.78,2,8.77,8.77,0,0,1,1.3,3.18c.89,4.35-1.94,8.62-5.83,10.75a16.44,16.44,0,0,1-6.26,1.77c-13.88,1.33-25.08-2.48-37.12-8.35" style="fill:none;stroke:#5b320e;stroke-linecap:round;stroke-linejoin:round;stroke-width:0.7977289976313283px"/><path d="M772.68,11.61c-2.64,3.32-7.11,4.68-11.35,4.86-7.27.32-14.35-2.24-21-5.19s-13.18-6.39-20.28-8a42.36,42.36,0,0,0-25,1.71" style="fill:none;stroke:#5b320e;stroke-linecap:round;stroke-linejoin:round;stroke-width:0.7977289976313283px"/><path d="M736.78,9.66a69.61,69.61,0,0,1,10.59,7.17,46.84,46.84,0,0,1,6.5,6.85,17.44,17.44,0,0,1,3.86,8.23c.68,4.56.12,9.89-5.31,13.83" style="fill:none;stroke:#5b320e;stroke-linecap:round;stroke-linejoin:round;stroke-width:0.7977289976313283px"/><path d="M759.11,24.31a43.2,43.2,0,0,1,12.8,14" style="fill:none;stroke:#5b320e;stroke-linecap:round;stroke-linejoin:round;stroke-width:0.7977289976313283px"/><path d="M735.59,20.1c-.46-3.45-2.32-5.41-4.8-7.2a24.55,24.55,0,0,0-8.37-3.63,34.56,34.56,0,0,0-12.69-.9,23.15,23.15,0,0,0-12.07,5.09" style="fill:none;stroke:#5b320e;stroke-linecap:round;stroke-linejoin:round;stroke-width:0.7977289976313283px"/><path d="M794.76,15.35a3.9,3.9,0,0,0,1.72,4.14,4.3,4.3,0,0,0,4.54-.1c.52-.34,1.13-.82,1.7-.56a1.23,1.23,0,0,1,.55.67,3.53,3.53,0,0,1-1,3.74,7.74,7.74,0,0,1-3.69,2,8.78,8.78,0,0,1-4.12-.18,5.45,5.45,0,0,1-3.57-3.22" style="fill:none;stroke:#5b320e;stroke-linecap:round;stroke-linejoin:round;stroke-width:0.5318193317542196px"/><path d="M699.54,25.63a6.48,6.48,0,0,0,3.16-.89,3.79,3.79,0,0,1,3.19-.25,2.49,2.49,0,0,1,1.21,1.88,1.82,1.82,0,0,1,0,.57,3.88,3.88,0,0,1-1.62,2.81,6.72,6.72,0,0,1-3.71,1.1,7.45,7.45,0,0,1-4.24-1,6.56,6.56,0,0,1-2.39-7.5.4.4,0,0,1,0-.15,8.89,8.89,0,0,1,6.3-5.32h0s0,0,0,0" style="fill:none;stroke:#5b320e;stroke-linecap:round;stroke-linejoin:round;stroke-width:0.5318193317542196px"/><path d="M771.6,20.21c-7.45.67-18.93-1.3-30.5-8.21" style="fill:none;stroke:#5b320e;stroke-linecap:round;stroke-linejoin:round;stroke-width:0.5318193317542196px"/><path d="M771.91,29.55l-.28-.14v0a56.71,56.71,0,0,1-12.18-8.25" style="fill:none;stroke:#5b320e;stroke-linecap:round;stroke-linejoin:round;stroke-width:0.5318193317542196px"/><path d="M725.43,26.68a5,5,0,0,0,2.25-3.6A7.94,7.94,0,0,0,727,18.8c-1.93-4.29-6.5-7-11.17-7.59s-9.4.69-13.67,2.65a19.61,19.61,0,0,1,13.54-1.35c4,1.2,7.64,4.32,7.87,8.34" style="fill:none;stroke:#5b320e;stroke-linecap:round;stroke-linejoin:round;stroke-width:0.5318193317542196px"/><path d="M703.24,13.44a15.18,15.18,0,0,1,9.92,1,10.79,10.79,0,0,1,5.92,7.79" style="fill:none;stroke:#5b320e;stroke-linecap:round;stroke-linejoin:round;stroke-width:0.5318193317542196px"/><path d="M764.17,36.67a14.61,14.61,0,0,0-4.91-11.33" style="fill:none;stroke:#5b320e;stroke-linecap:round;stroke-linejoin:round;stroke-width:0.5318193317542196px"/><path d="M753.1,32.13a9.64,9.64,0,0,1-1.6,9.38" style="fill:none;stroke:#5b320e;stroke-linecap:round;stroke-linejoin:round;stroke-width:0.5318193317542196px"/><path d="M704.45,24.44A15.43,15.43,0,0,1,707.11,27" style="fill:none;stroke:#5b320e;stroke-linecap:round;stroke-linejoin:round;stroke-width:0.26590966587710874px"/><path d="M702.8,25l3.51,3.35" style="fill:none;stroke:#5b320e;stroke-linecap:round;stroke-linejoin:round;stroke-width:0.26590966587710874px"/><path d="M701.13,25.46,704.64,29" style="fill:none;stroke:#5b320e;stroke-linecap:round;stroke-linejoin:round;stroke-width:0.26590966587710874px"/><path d="M699.83,25.72a43,43,0,0,0,3.32,3.7" style="fill:none;stroke:#5b320e;stroke-linecap:round;stroke-linejoin:round;stroke-width:0.26590966587710874px"/><path d="M702.34,17.29l1.16,1" style="fill:none;stroke:#5b320e;stroke-linecap:round;stroke-linejoin:round;stroke-width:0.26590966587710874px"/><path d="M700.47,17.55l1.17,1.07" style="fill:none;stroke:#5b320e;stroke-linecap:round;stroke-linejoin:round;stroke-width:0.26590966587710874px"/><path d="M699.2,18.2a9.28,9.28,0,0,1,1.37,1.5" style="fill:none;stroke:#5b320e;stroke-linecap:round;stroke-linejoin:round;stroke-width:0.26590966587710874px"/><path d="M698.14,18.88l1.23,1.24" style="fill:none;stroke:#5b320e;stroke-linecap:round;stroke-linejoin:round;stroke-width:0.26590966587710874px"/><path d="M697,19.76l1.68,2" style="fill:none;stroke:#5b320e;stroke-linecap:round;stroke-linejoin:round;stroke-width:0.26590966587710874px"/><path d="M696,21a17.56,17.56,0,0,0,2.23,2.25" style="fill:none;stroke:#5b320e;stroke-linecap:round;stroke-linejoin:round;stroke-width:0.26590966587710874px"/><path d="M695.13,22.32a92.13,92.13,0,0,0,6.77,7.74" style="fill:none;stroke:#5b320e;stroke-linecap:round;stroke-linejoin:round;stroke-width:0.26590966587710874px"/><path d="M695.11,24.65c1.59,2.07,3.28,4.07,5,6" style="fill:none;stroke:#5b320e;stroke-linecap:round;stroke-linejoin:round;stroke-width:0.26590966587710874px"/><path d="M761.48,27.73a51.29,51.29,0,0,1,8,9.89" style="fill:none;stroke:#5b320e;stroke-linecap:round;stroke-linejoin:round;stroke-width:0.26590966587710874px"/><path d="M764.16,32.53a23.54,23.54,0,0,1,3.29,4.52" style="fill:none;stroke:#5b320e;stroke-linecap:round;stroke-linejoin:round;stroke-width:0.26590966587710874px"/><path d="M764.55,34.76l1.48,2" style="fill:none;stroke:#5b320e;stroke-linecap:round;stroke-linejoin:round;stroke-width:0.26590966587710874px"/><path d="M719.52,12.33a21.93,21.93,0,0,1,8,8.57" style="fill:none;stroke:#5b320e;stroke-linecap:round;stroke-linejoin:round;stroke-width:0.26590966587710874px"/><path d="M717,11.47a32.11,32.11,0,0,0,2.75,2.32,31.34,31.34,0,0,1,7.7,9.29" style="fill:none;stroke:#5b320e;stroke-linecap:round;stroke-linejoin:round;stroke-width:0.26590966587710874px"/><path d="M715,11.46a11.13,11.13,0,0,1,1.45,1.2" style="fill:none;stroke:#5b320e;stroke-linecap:round;stroke-linejoin:round;stroke-width:0.26590966587710874px"/><path d="M723.32,19.7A15.83,15.83,0,0,1,727,25.38" style="fill:none;stroke:#5b320e;stroke-linecap:round;stroke-linejoin:round;stroke-width:0.26590966587710874px"/><path d="M724.6,23.86a4.26,4.26,0,0,1,1.21,1.78" style="fill:none;stroke:#5b320e;stroke-linecap:round;stroke-linejoin:round;stroke-width:0.26590966587710874px"/><path d="M793.76,12.07a2,2,0,0,1,1,.79" style="fill:none;stroke:#5b320e;stroke-linecap:round;stroke-linejoin:round;stroke-width:0.26590966587710874px"/><path d="M792.66,12.86a9.54,9.54,0,0,1,1.93,1.77" style="fill:none;stroke:#5b320e;stroke-linecap:round;stroke-linejoin:round;stroke-width:0.26590966587710874px"/><path d="M791.75,14.3,794.56,17" style="fill:none;stroke:#5b320e;stroke-linecap:round;stroke-linejoin:round;stroke-width:0.26590966587710874px"/><path d="M791.24,15.65c2,2.22,7.34,6.28,9.78,8" style="fill:none;stroke:#5b320e;stroke-linecap:round;stroke-linejoin:round;stroke-width:0.26590966587710874px"/><path d="M791.07,17.44a63.23,63.23,0,0,0,8.29,7.3" style="fill:none;stroke:#5b320e;stroke-linecap:round;stroke-linejoin:round;stroke-width:0.26590966587710874px"/><path d="M791,19.71c2,1.87,4,3.65,6.15,5.32" style="fill:none;stroke:#5b320e;stroke-linecap:round;stroke-linejoin:round;stroke-width:0.26590966587710874px"/><path d="M791.18,21.66l3.39,2.82" style="fill:none;stroke:#5b320e;stroke-linecap:round;stroke-linejoin:round;stroke-width:0.26590966587710874px"/><path d="M798.8,20.48A35.92,35.92,0,0,1,802,22.83" style="fill:none;stroke:#5b320e;stroke-linecap:round;stroke-linejoin:round;stroke-width:0.26590966587710874px"/><path d="M800.21,19.54a10.12,10.12,0,0,1,2.33,2" style="fill:none;stroke:#5b320e;stroke-linecap:round;stroke-linejoin:round;stroke-width:0.26590966587710874px"/><path d="M794.71,10.86l.59.35" style="fill:none;stroke:#5b320e;stroke-linecap:round;stroke-linejoin:round;stroke-width:0.26590966587710874px"/><path d="M796.44,9.84l1.16.95" style="fill:none;stroke:#5b320e;stroke-linecap:round;stroke-linejoin:round;stroke-width:0.26590966587710874px"/><path d="M797.75,9.24l1.64.93" style="fill:none;stroke:#5b320e;stroke-linecap:round;stroke-linejoin:round;stroke-width:0.26590966587710874px"/><path d="M799.5,8.77a17.64,17.64,0,0,1,2.22,1.3" style="fill:none;stroke:#5b320e;stroke-linecap:round;stroke-linejoin:round;stroke-width:0.26590966587710874px"/><path d="M802,8.54,803.83,10" style="fill:none;stroke:#5b320e;stroke-linecap:round;stroke-linejoin:round;stroke-width:0.26590966587710874px"/><path d="M805.26,9.22a42.38,42.38,0,0,1,6.46,7.25" style="fill:none;stroke:#5b320e;stroke-linecap:round;stroke-linejoin:round;stroke-width:0.26590966587710874px"/><path d="M808.64,15.32A20.28,20.28,0,0,1,812.58,20" style="fill:none;stroke:#5b320e;stroke-linecap:round;stroke-linejoin:round;stroke-width:0.26590966587710874px"/><path d="M809.35,18a11.62,11.62,0,0,1,2.8,3.89" style="fill:none;stroke:#5b320e;stroke-linecap:round;stroke-linejoin:round;stroke-width:0.26590966587710874px"/><path d="M808.86,20a12.33,12.33,0,0,1,2.74,3.6" style="fill:none;stroke:#5b320e;stroke-linecap:round;stroke-linejoin:round;stroke-width:0.26590966587710874px"/><path d="M808.41,22a21,21,0,0,1,2.31,2.83" style="fill:none;stroke:#5b320e;stroke-linecap:round;stroke-linejoin:round;stroke-width:0.26590966587710874px"/><path d="M807.49,23.5a9.17,9.17,0,0,1,2.23,2.83" style="fill:none;stroke:#5b320e;stroke-linecap:round;stroke-linejoin:round;stroke-width:0.26590966587710874px"/><path d="M806.64,25.17c.7.75,1.36,1.53,2,2.34" style="fill:none;stroke:#5b320e;stroke-linecap:round;stroke-linejoin:round;stroke-width:0.26590966587710874px"/><path d="M805,26a15.64,15.64,0,0,1,2.57,2.82" style="fill:none;stroke:#5b320e;stroke-linecap:round;stroke-linejoin:round;stroke-width:0.26590966587710874px"/><path d="M803.71,27.05,806,29.6" style="fill:none;stroke:#5b320e;stroke-linecap:round;stroke-linejoin:round;stroke-width:0.26590966587710874px"/><path d="M802.29,27.76l2.14,2.44" style="fill:none;stroke:#5b320e;stroke-linecap:round;stroke-linejoin:round;stroke-width:0.26590966587710874px"/><path d="M800.93,28.42a24,24,0,0,1,2.67,3.19" style="fill:none;stroke:#5b320e;stroke-linecap:round;stroke-linejoin:round;stroke-width:0.26590966587710874px"/><path d="M799.39,28.67a13.66,13.66,0,0,1,2.79,3.18" style="fill:none;stroke:#5b320e;stroke-linecap:round;stroke-linejoin:round;stroke-width:0.26590966587710874px"/><path d="M797.52,29.26a8.22,8.22,0,0,1,2.68,2.82" style="fill:none;stroke:#5b320e;stroke-linecap:round;stroke-linejoin:round;stroke-width:0.26590966587710874px"/><path d="M795.88,29.6a11,11,0,0,1,2.8,3.06" style="fill:none;stroke:#5b320e;stroke-linecap:round;stroke-linejoin:round;stroke-width:0.26590966587710874px"/><path d="M793.87,29.86a14.87,14.87,0,0,1,3.33,3.48" style="fill:none;stroke:#5b320e;stroke-linecap:round;stroke-linejoin:round;stroke-width:0.26590966587710874px"/><path d="M791.54,30a14.36,14.36,0,0,1,3.08,2.9" style="fill:none;stroke:#5b320e;stroke-linecap:round;stroke-linejoin:round;stroke-width:0.26590966587710874px"/><path d="M789.07,29.74a10.14,10.14,0,0,1,3.19,3" style="fill:none;stroke:#5b320e;stroke-linecap:round;stroke-linejoin:round;stroke-width:0.26590966587710874px"/><path d="M786.84,29.64a12.42,12.42,0,0,1,3.8,3.7" style="fill:none;stroke:#5b320e;stroke-linecap:round;stroke-linejoin:round;stroke-width:0.26590966587710874px"/><path d="M784.39,30l-.16-.21a14.53,14.53,0,0,1,3.69,3.39" style="fill:none;stroke:#5b320e;stroke-linecap:round;stroke-linejoin:round;stroke-width:0.26590966587710874px"/><path d="M782.31,29.36l3.29,3.27" style="fill:none;stroke:#5b320e;stroke-linecap:round;stroke-linejoin:round;stroke-width:0.26590966587710874px"/><path d="M780,29l3.51,3.51" style="fill:none;stroke:#5b320e;stroke-linecap:round;stroke-linejoin:round;stroke-width:0.26590966587710874px"/><path d="M777.24,28.1a47.77,47.77,0,0,1,3.54,3.72" style="fill:none;stroke:#5b320e;stroke-linecap:round;stroke-linejoin:round;stroke-width:0.26590966587710874px"/><path d="M774,27.26A20.57,20.57,0,0,1,777.85,31" style="fill:none;stroke:#5b320e;stroke-linecap:round;stroke-linejoin:round;stroke-width:0.26590966587710874px"/><path d="M770.92,26.12a26.89,26.89,0,0,1,4.47,4.19" style="fill:none;stroke:#5b320e;stroke-linecap:round;stroke-linejoin:round;stroke-width:0.26590966587710874px"/><path d="M767,24.81q2.64,2,5.18,4.19" style="fill:none;stroke:#5b320e;stroke-linecap:round;stroke-linejoin:round;stroke-width:0.26590966587710874px"/><path d="M762.93,22.75a39.17,39.17,0,0,0,4.47,4.07" style="fill:none;stroke:#5b320e;stroke-linecap:round;stroke-linejoin:round;stroke-width:0.26590966587710874px"/><path d="M741.92,14.12c7.3,6,11.71,10.7,15.21,16.07" style="fill:none;stroke:#5b320e;stroke-linecap:round;stroke-linejoin:round;stroke-width:0.26590966587710874px"/><path d="M747.87,20.72a81.65,81.65,0,0,1,9.43,11.41" style="fill:none;stroke:#5b320e;stroke-linecap:round;stroke-linejoin:round;stroke-width:0.26590966587710874px"/><path d="M751.81,27.07c2.1,2.23,4.44,4.8,5.62,7.63" style="fill:none;stroke:#5b320e;stroke-linecap:round;stroke-linejoin:round;stroke-width:0.26590966587710874px"/><path d="M753.11,30.45a21.49,21.49,0,0,1,4.32,6.3" style="fill:none;stroke:#5b320e;stroke-linecap:round;stroke-linejoin:round;stroke-width:0.26590966587710874px"/><path d="M753.57,33.15A19.1,19.1,0,0,1,757,38.89" style="fill:none;stroke:#5b320e;stroke-linecap:round;stroke-linejoin:round;stroke-width:0.26590966587710874px"/><path d="M753.94,35.94a15.38,15.38,0,0,1,2.44,4.32" style="fill:none;stroke:#5b320e;stroke-linecap:round;stroke-linejoin:round;stroke-width:0.26590966587710874px"/><path d="M753.24,37.94a12.55,12.55,0,0,1,2.35,3.82" style="fill:none;stroke:#5b320e;stroke-linecap:round;stroke-linejoin:round;stroke-width:0.26590966587710874px"/><path d="M752.66,39.22A8.66,8.66,0,0,1,755,43.08" style="fill:none;stroke:#5b320e;stroke-linecap:round;stroke-linejoin:round;stroke-width:0.26590966587710874px"/><path d="M752,40.5a12.45,12.45,0,0,1,2.1,3.4" style="fill:none;stroke:#5b320e;stroke-linecap:round;stroke-linejoin:round;stroke-width:0.26590966587710874px"/><path d="M753.32,44.43a12.24,12.24,0,0,0-1.61-2v0l-.11-.1" style="fill:none;stroke:#5b320e;stroke-linecap:round;stroke-linejoin:round;stroke-width:0.26590966587710874px"/><path d="M739.53,12.08a46.33,46.33,0,0,1,13.4,17.29" style="fill:none;stroke:#5b320e;stroke-linecap:round;stroke-linejoin:round;stroke-width:0.26590966587710874px"/><path d="M756.62,13.38c-10-1.09-18.92-6.8-28.56-9.79C721.31,1.5,712,.4,704.55,2.17" style="fill:none;stroke:#5b320e;stroke-linecap:round;stroke-linejoin:round;stroke-width:0.26590966587710874px"/><path d="M732.51,18a.8.8,0,0,1,.48.35,3.62,3.62,0,0,1-1.54,5.5" style="fill:none;stroke:#5b320e;stroke-linecap:round;stroke-linejoin:round;stroke-width:0.26590966587710874px"/><path d="M748.2,35.36A6.65,6.65,0,0,1,745.52,41" style="fill:none;stroke:#5b320e;stroke-linecap:round;stroke-linejoin:round;stroke-width:0.26590966587710874px"/><path d="M761.31,39.92a7.41,7.41,0,0,1-2.68,3.28" style="fill:none;stroke:#5b320e;stroke-linecap:round;stroke-linejoin:round;stroke-width:0.26590966587710874px"/><path d="M802.06,12.46a3.79,3.79,0,0,0-4.37,2.74" style="fill:none;stroke:#5b320e;stroke-linecap:round;stroke-linejoin:round;stroke-width:0.26590966587710874px"/><path d="M703.27,4.71a22,22,0,0,0-11.09,5.41c-3.3,2.93-7.07,10.88-2.77,19.69" style="fill:none;stroke:#5b320e;stroke-linecap:round;stroke-linejoin:round;stroke-width:0.26590966587710874px"/></g></g></svg>