<svg xmlns="http://www.w3.org/2000/svg" viewBox="0 0 438 437.35"><g id="Layer_2" data-name="Layer 2"><g id="Layer_1-2" data-name="Layer 1"><path d="M432.5,218.35c-117.91,0-213.5,95.59-213.5,213.5C218.65,314.24,123.19,219,5.5,219,123.41,219,219,123.41,219,5.5,219.35,123.11,314.81,218.35,432.5,218.35Z" style="fill:#5b320e"/><path d="M219,436.85a5,5,0,0,1-5-5C213.66,317.25,120.12,224,5.5,224a5,5,0,0,1,0-10C120.47,214,214,120.47,214,5.5a5,5,0,0,1,5-5h0a5,5,0,0,1,5,5c.34,114.61,93.88,207.86,208.5,207.86a5,5,0,0,1,0,10c-115,0-208.5,93.53-208.5,208.5a5,5,0,0,1-5,5Z" style="fill:none;stroke:#5b320e;stroke-miterlimit:10"/></g></g></svg>