<svg xmlns="http://www.w3.org/2000/svg" viewBox="0 0 454.86 284.13"><g id="Layer_2" data-name="Layer 2"><g id="Layer_1-2" data-name="Layer 1"><g style="opacity:0.7"><path d="M372.08,19.05A19.1,19.1,0,0,0,353,38.15a19.1,19.1,0,0,0-19.1-19A19.11,19.11,0,0,0,353,0,19.11,19.11,0,0,0,372.08,19.05Z" style="fill:#5b320e"/><path d="M128.64,265a19.1,19.1,0,0,0-19.1,19.1,19.11,19.11,0,0,0-19.11-19.05A19.1,19.1,0,0,0,109.54,246,19.11,19.11,0,0,0,128.64,265Z" style="fill:#5b320e"/><ellipse cx="227.43" cy="142.74" rx="234.19" ry="94.31" transform="translate(-36.96 95.86) rotate(-22.06)" style="fill:none;stroke:#5b320e;stroke-miterlimit:10;stroke-width:1.2745054645549345px"/><ellipse cx="227.43" cy="142.74" rx="234.19" ry="94.31" transform="translate(-30.31 67.45) rotate(-15.83)" style="fill:none;stroke:#5b320e;stroke-miterlimit:10;stroke-width:1.2745054645549345px"/></g></g></g></svg>